<?xml version="1.0" encoding="utf-8"?>
<!-- Generator: Adobe Illustrator 23.1.0, SVG Export Plug-In . SVG Version: 6.00 Build 0)  -->
<svg version="1.2" baseProfile="tiny" id="Layer_1" xmlns="http://www.w3.org/2000/svg" xmlns:xlink="http://www.w3.org/1999/xlink"
	 x="0px" y="0px" viewBox="0 0 1024 1024" xml:space="preserve">
<g>
	<g>
		<path fill="#D81F27" d="M884.1,264.9c-100.3-91.7-321-58.5-321-58.5c96.5,3.7,164.9,18,218.6,47C889.3,315.8,598,495.4,590.3,500
			l57.8-67.1L501,160.1L195.6,706L112,855.5c2.3,2.9,4.4,5.6,6.7,8.4L259,791l166.7-86.8C790.4,504.9,963.7,383.6,884.1,264.9z
			 M415.9,584.8l78.5-137.7l44.1,75.9L415.9,584.8z"/>
		<path fill="#D81F27" stroke="#C1272D" stroke-width="0.25" stroke-miterlimit="10" d="M590.3,500c-0.1,0.1-0.1,0.1-0.1,0.1"/>
		<path fill="#D81F27" d="M505.5,738.2c-6.3,0.1-12.8,0.1-19.3,0.3c0,0,7.1-2.6,19.2-7.6L505.5,738.2z"/>
	</g>
	<path fill="#232323" d="M912,847.4c-1.1-1.1-11.9-11.6-34.7-25.7c-22.7-14.2-57.5-32-106.3-47.4c-63.3-20.1-150.2-36.4-265.5-36
		l-0.1-7.3c48-19.3,174.6-74.4,255.5-146.2l67.1,117.1L912,847.4z"/>
</g>
</svg>
